<mxfile host="app.diagrams.net" modified="2021-04-20T14:45:49.390Z" agent="5.0 (Windows NT 10.0; Win64; x64) AppleWebKit/537.36 (KHTML, like Gecko) Chrome/89.0.4389.128 Safari/537.36" etag="96qQZgfxMd-2rC4IFBSb" version="14.6.1" type="github" pages="3">
  <diagram id="bzu2E_UAY_ouwu1E5m8z" name="第 1 页">
    <mxGraphModel dx="1422" dy="772" grid="1" gridSize="10" guides="1" tooltips="1" connect="1" arrows="1" fold="1" page="1" pageScale="1" pageWidth="827" pageHeight="1169" math="0" shadow="0">
      <root>
        <mxCell id="0" />
        <mxCell id="1" parent="0" />
        <mxCell id="P7p5Ek4KawbF1okIYfM0-1" value="SpringBoot2响应式编程" style="rounded=0;whiteSpace=wrap;html=1;" parent="1" vertex="1">
          <mxGeometry x="30" y="410" width="120" height="60" as="geometry" />
        </mxCell>
        <mxCell id="P7p5Ek4KawbF1okIYfM0-2" value="SpringBoot2核心技术" style="rounded=0;whiteSpace=wrap;html=1;" parent="1" vertex="1">
          <mxGeometry x="160" y="310" width="120" height="60" as="geometry" />
        </mxCell>
        <mxCell id="P7p5Ek4KawbF1okIYfM0-3" value="Spring能做什么？" style="rounded=0;whiteSpace=wrap;html=1;" parent="1" vertex="1">
          <mxGeometry x="570" y="110" width="120" height="60" as="geometry" />
        </mxCell>
        <mxCell id="P7p5Ek4KawbF1okIYfM0-4" value="什么是SpringBoot" style="rounded=0;whiteSpace=wrap;html=1;" parent="1" vertex="1">
          <mxGeometry x="570" y="230" width="120" height="60" as="geometry" />
        </mxCell>
        <mxCell id="P7p5Ek4KawbF1okIYfM0-5" value="快速体验SpringBoot" style="rounded=0;whiteSpace=wrap;html=1;" parent="1" vertex="1">
          <mxGeometry x="570" y="340" width="120" height="60" as="geometry" />
        </mxCell>
        <mxCell id="P7p5Ek4KawbF1okIYfM0-6" value="SpringBoot2基础入门" style="rounded=0;whiteSpace=wrap;html=1;" parent="1" vertex="1">
          <mxGeometry x="370" y="220" width="120" height="60" as="geometry" />
        </mxCell>
        <mxCell id="P7p5Ek4KawbF1okIYfM0-7" value="自动配置原理入门" style="rounded=0;whiteSpace=wrap;html=1;" parent="1" vertex="1">
          <mxGeometry x="580" y="450" width="120" height="60" as="geometry" />
        </mxCell>
        <mxCell id="P7p5Ek4KawbF1okIYfM0-8" value="" style="endArrow=classic;html=1;exitX=1;exitY=0.5;exitDx=0;exitDy=0;entryX=0;entryY=0.5;entryDx=0;entryDy=0;" parent="1" source="P7p5Ek4KawbF1okIYfM0-1" target="P7p5Ek4KawbF1okIYfM0-2" edge="1">
          <mxGeometry width="50" height="50" relative="1" as="geometry">
            <mxPoint x="210" y="430" as="sourcePoint" />
            <mxPoint x="260" y="380" as="targetPoint" />
          </mxGeometry>
        </mxCell>
        <mxCell id="P7p5Ek4KawbF1okIYfM0-9" value="" style="endArrow=classic;html=1;exitX=1;exitY=0.5;exitDx=0;exitDy=0;entryX=0;entryY=0.5;entryDx=0;entryDy=0;" parent="1" source="P7p5Ek4KawbF1okIYfM0-2" target="P7p5Ek4KawbF1okIYfM0-6" edge="1">
          <mxGeometry width="50" height="50" relative="1" as="geometry">
            <mxPoint x="200" y="450" as="sourcePoint" />
            <mxPoint x="220" y="360" as="targetPoint" />
          </mxGeometry>
        </mxCell>
        <mxCell id="P7p5Ek4KawbF1okIYfM0-10" value="" style="endArrow=classic;html=1;exitX=1;exitY=0.5;exitDx=0;exitDy=0;entryX=0;entryY=0.5;entryDx=0;entryDy=0;" parent="1" source="P7p5Ek4KawbF1okIYfM0-6" target="P7p5Ek4KawbF1okIYfM0-3" edge="1">
          <mxGeometry width="50" height="50" relative="1" as="geometry">
            <mxPoint x="340" y="360" as="sourcePoint" />
            <mxPoint x="380" y="260" as="targetPoint" />
          </mxGeometry>
        </mxCell>
        <mxCell id="P7p5Ek4KawbF1okIYfM0-11" value="" style="endArrow=classic;html=1;exitX=1;exitY=0.5;exitDx=0;exitDy=0;entryX=0;entryY=0.5;entryDx=0;entryDy=0;" parent="1" source="P7p5Ek4KawbF1okIYfM0-6" target="P7p5Ek4KawbF1okIYfM0-4" edge="1">
          <mxGeometry width="50" height="50" relative="1" as="geometry">
            <mxPoint x="500" y="260" as="sourcePoint" />
            <mxPoint x="580" y="160" as="targetPoint" />
          </mxGeometry>
        </mxCell>
        <mxCell id="P7p5Ek4KawbF1okIYfM0-12" value="" style="endArrow=classic;html=1;entryX=0;entryY=0.5;entryDx=0;entryDy=0;" parent="1" target="P7p5Ek4KawbF1okIYfM0-5" edge="1">
          <mxGeometry width="50" height="50" relative="1" as="geometry">
            <mxPoint x="490" y="250" as="sourcePoint" />
            <mxPoint x="560" y="280" as="targetPoint" />
          </mxGeometry>
        </mxCell>
        <mxCell id="P7p5Ek4KawbF1okIYfM0-13" value="" style="endArrow=classic;html=1;entryX=0;entryY=0.5;entryDx=0;entryDy=0;exitX=1;exitY=0.5;exitDx=0;exitDy=0;" parent="1" source="P7p5Ek4KawbF1okIYfM0-6" target="P7p5Ek4KawbF1okIYfM0-7" edge="1">
          <mxGeometry width="50" height="50" relative="1" as="geometry">
            <mxPoint x="500" y="260" as="sourcePoint" />
            <mxPoint x="560" y="390" as="targetPoint" />
          </mxGeometry>
        </mxCell>
        <mxCell id="P7p5Ek4KawbF1okIYfM0-14" value="SpringBoot2核心功能" style="rounded=0;whiteSpace=wrap;html=1;" parent="1" vertex="1">
          <mxGeometry x="370" y="585" width="120" height="60" as="geometry" />
        </mxCell>
        <mxCell id="P7p5Ek4KawbF1okIYfM0-15" value="" style="endArrow=classic;html=1;exitX=1;exitY=0.5;exitDx=0;exitDy=0;entryX=0;entryY=0.5;entryDx=0;entryDy=0;" parent="1" source="P7p5Ek4KawbF1okIYfM0-2" target="P7p5Ek4KawbF1okIYfM0-14" edge="1">
          <mxGeometry width="50" height="50" relative="1" as="geometry">
            <mxPoint x="340" y="360" as="sourcePoint" />
            <mxPoint x="380" y="260" as="targetPoint" />
          </mxGeometry>
        </mxCell>
        <mxCell id="P7p5Ek4KawbF1okIYfM0-16" value="配置文件" style="rounded=0;whiteSpace=wrap;html=1;" parent="1" vertex="1">
          <mxGeometry x="570" y="550" width="120" height="60" as="geometry" />
        </mxCell>
        <mxCell id="P7p5Ek4KawbF1okIYfM0-17" value="" style="endArrow=classic;html=1;exitX=1;exitY=0.5;exitDx=0;exitDy=0;entryX=0;entryY=0.5;entryDx=0;entryDy=0;" parent="1" source="P7p5Ek4KawbF1okIYfM0-14" target="P7p5Ek4KawbF1okIYfM0-16" edge="1">
          <mxGeometry width="50" height="50" relative="1" as="geometry">
            <mxPoint x="340" y="360" as="sourcePoint" />
            <mxPoint x="390" y="565" as="targetPoint" />
          </mxGeometry>
        </mxCell>
        <mxCell id="P7p5Ek4KawbF1okIYfM0-18" value="web开发" style="rounded=0;whiteSpace=wrap;html=1;" parent="1" vertex="1">
          <mxGeometry x="560" y="650" width="120" height="60" as="geometry" />
        </mxCell>
        <mxCell id="P7p5Ek4KawbF1okIYfM0-19" value="数据访问" style="rounded=0;whiteSpace=wrap;html=1;" parent="1" vertex="1">
          <mxGeometry x="550" y="740" width="120" height="60" as="geometry" />
        </mxCell>
        <mxCell id="P7p5Ek4KawbF1okIYfM0-20" value="JUNIT5单元测试" style="rounded=0;whiteSpace=wrap;html=1;" parent="1" vertex="1">
          <mxGeometry x="550" y="830" width="120" height="60" as="geometry" />
        </mxCell>
        <mxCell id="P7p5Ek4KawbF1okIYfM0-21" value="Actutor生产指标监控" style="rounded=0;whiteSpace=wrap;html=1;" parent="1" vertex="1">
          <mxGeometry x="550" y="930" width="120" height="60" as="geometry" />
        </mxCell>
        <mxCell id="P7p5Ek4KawbF1okIYfM0-22" value="SpringBoot核心原理解析" style="rounded=0;whiteSpace=wrap;html=1;" parent="1" vertex="1">
          <mxGeometry x="550" y="1010" width="120" height="60" as="geometry" />
        </mxCell>
        <mxCell id="P7p5Ek4KawbF1okIYfM0-23" value="" style="endArrow=classic;html=1;exitX=1;exitY=0.5;exitDx=0;exitDy=0;entryX=0;entryY=0.5;entryDx=0;entryDy=0;" parent="1" source="P7p5Ek4KawbF1okIYfM0-14" target="P7p5Ek4KawbF1okIYfM0-18" edge="1">
          <mxGeometry width="50" height="50" relative="1" as="geometry">
            <mxPoint x="510" y="565" as="sourcePoint" />
            <mxPoint x="580" y="590" as="targetPoint" />
          </mxGeometry>
        </mxCell>
        <mxCell id="P7p5Ek4KawbF1okIYfM0-24" value="" style="endArrow=classic;html=1;exitX=1;exitY=0.5;exitDx=0;exitDy=0;entryX=0;entryY=0.5;entryDx=0;entryDy=0;" parent="1" source="P7p5Ek4KawbF1okIYfM0-14" target="P7p5Ek4KawbF1okIYfM0-19" edge="1">
          <mxGeometry width="50" height="50" relative="1" as="geometry">
            <mxPoint x="484" y="680" as="sourcePoint" />
            <mxPoint x="570" y="690" as="targetPoint" />
          </mxGeometry>
        </mxCell>
        <mxCell id="P7p5Ek4KawbF1okIYfM0-25" value="" style="endArrow=classic;html=1;exitX=1;exitY=0.5;exitDx=0;exitDy=0;entryX=0;entryY=0.5;entryDx=0;entryDy=0;" parent="1" source="P7p5Ek4KawbF1okIYfM0-14" target="P7p5Ek4KawbF1okIYfM0-20" edge="1">
          <mxGeometry width="50" height="50" relative="1" as="geometry">
            <mxPoint x="484" y="680" as="sourcePoint" />
            <mxPoint x="560" y="780" as="targetPoint" />
          </mxGeometry>
        </mxCell>
        <mxCell id="P7p5Ek4KawbF1okIYfM0-26" value="" style="endArrow=classic;html=1;entryX=0;entryY=0.75;entryDx=0;entryDy=0;exitX=1;exitY=0.5;exitDx=0;exitDy=0;" parent="1" source="P7p5Ek4KawbF1okIYfM0-14" target="P7p5Ek4KawbF1okIYfM0-21" edge="1">
          <mxGeometry width="50" height="50" relative="1" as="geometry">
            <mxPoint x="470" y="680" as="sourcePoint" />
            <mxPoint x="570" y="790" as="targetPoint" />
          </mxGeometry>
        </mxCell>
        <mxCell id="P7p5Ek4KawbF1okIYfM0-27" value="" style="endArrow=classic;html=1;exitX=1;exitY=0.5;exitDx=0;exitDy=0;entryX=0;entryY=0.5;entryDx=0;entryDy=0;" parent="1" source="P7p5Ek4KawbF1okIYfM0-14" target="P7p5Ek4KawbF1okIYfM0-22" edge="1">
          <mxGeometry width="50" height="50" relative="1" as="geometry">
            <mxPoint x="504" y="700" as="sourcePoint" />
            <mxPoint x="580" y="800" as="targetPoint" />
          </mxGeometry>
        </mxCell>
        <mxCell id="P7p5Ek4KawbF1okIYfM0-28" value="SpringBoot2场景整合" style="rounded=0;whiteSpace=wrap;html=1;" parent="1" vertex="1">
          <mxGeometry x="280" y="840" width="120" height="60" as="geometry" />
        </mxCell>
        <mxCell id="P7p5Ek4KawbF1okIYfM0-29" value="虚拟化技术" style="rounded=0;whiteSpace=wrap;html=1;" parent="1" vertex="1">
          <mxGeometry x="550" y="1120" width="120" height="60" as="geometry" />
        </mxCell>
        <mxCell id="P7p5Ek4KawbF1okIYfM0-30" value="" style="endArrow=classic;html=1;exitX=1;exitY=0.5;exitDx=0;exitDy=0;entryX=0;entryY=0.5;entryDx=0;entryDy=0;" parent="1" source="P7p5Ek4KawbF1okIYfM0-28" target="P7p5Ek4KawbF1okIYfM0-29" edge="1">
          <mxGeometry width="50" height="50" relative="1" as="geometry">
            <mxPoint x="440" y="760" as="sourcePoint" />
            <mxPoint x="560" y="1050" as="targetPoint" />
          </mxGeometry>
        </mxCell>
        <mxCell id="P7p5Ek4KawbF1okIYfM0-31" value="安全控制" style="rounded=0;whiteSpace=wrap;html=1;" parent="1" vertex="1">
          <mxGeometry x="540" y="1220" width="120" height="60" as="geometry" />
        </mxCell>
        <mxCell id="P7p5Ek4KawbF1okIYfM0-33" value="" style="endArrow=classic;html=1;exitX=1;exitY=0.5;exitDx=0;exitDy=0;entryX=0;entryY=0.5;entryDx=0;entryDy=0;" parent="1" source="P7p5Ek4KawbF1okIYfM0-28" target="P7p5Ek4KawbF1okIYfM0-31" edge="1">
          <mxGeometry width="50" height="50" relative="1" as="geometry">
            <mxPoint x="440" y="1140" as="sourcePoint" />
            <mxPoint x="560" y="1160" as="targetPoint" />
          </mxGeometry>
        </mxCell>
        <mxCell id="P7p5Ek4KawbF1okIYfM0-34" value="缓存技术" style="rounded=0;whiteSpace=wrap;html=1;" parent="1" vertex="1">
          <mxGeometry x="530" y="1320" width="120" height="60" as="geometry" />
        </mxCell>
        <mxCell id="P7p5Ek4KawbF1okIYfM0-35" value="" style="endArrow=classic;html=1;exitX=1;exitY=0.5;exitDx=0;exitDy=0;entryX=0;entryY=0.5;entryDx=0;entryDy=0;" parent="1" source="P7p5Ek4KawbF1okIYfM0-28" target="P7p5Ek4KawbF1okIYfM0-34" edge="1">
          <mxGeometry width="50" height="50" relative="1" as="geometry">
            <mxPoint x="440" y="1140" as="sourcePoint" />
            <mxPoint x="550" y="1260" as="targetPoint" />
          </mxGeometry>
        </mxCell>
        <mxCell id="P7p5Ek4KawbF1okIYfM0-36" value="消息中间件" style="rounded=0;whiteSpace=wrap;html=1;" parent="1" vertex="1">
          <mxGeometry x="530" y="1400" width="120" height="60" as="geometry" />
        </mxCell>
        <mxCell id="P7p5Ek4KawbF1okIYfM0-37" value="" style="endArrow=classic;html=1;exitX=1;exitY=0.5;exitDx=0;exitDy=0;entryX=0;entryY=0.75;entryDx=0;entryDy=0;" parent="1" source="P7p5Ek4KawbF1okIYfM0-28" target="P7p5Ek4KawbF1okIYfM0-36" edge="1">
          <mxGeometry width="50" height="50" relative="1" as="geometry">
            <mxPoint x="440" y="1140" as="sourcePoint" />
            <mxPoint x="540" y="1360" as="targetPoint" />
          </mxGeometry>
        </mxCell>
        <mxCell id="P7p5Ek4KawbF1okIYfM0-38" value="分布式入门" style="rounded=0;whiteSpace=wrap;html=1;" parent="1" vertex="1">
          <mxGeometry x="520" y="1510" width="120" height="60" as="geometry" />
        </mxCell>
        <mxCell id="P7p5Ek4KawbF1okIYfM0-39" value="" style="endArrow=classic;html=1;exitX=1;exitY=0.5;exitDx=0;exitDy=0;entryX=0;entryY=0.5;entryDx=0;entryDy=0;" parent="1" source="P7p5Ek4KawbF1okIYfM0-28" target="P7p5Ek4KawbF1okIYfM0-38" edge="1">
          <mxGeometry width="50" height="50" relative="1" as="geometry">
            <mxPoint x="440" y="1140" as="sourcePoint" />
            <mxPoint x="540" y="1455" as="targetPoint" />
          </mxGeometry>
        </mxCell>
        <mxCell id="P7p5Ek4KawbF1okIYfM0-42" value="......" style="rounded=0;whiteSpace=wrap;html=1;" parent="1" vertex="1">
          <mxGeometry x="510" y="1590" width="120" height="60" as="geometry" />
        </mxCell>
        <mxCell id="P7p5Ek4KawbF1okIYfM0-43" value="" style="endArrow=classic;html=1;exitX=1;exitY=0.5;exitDx=0;exitDy=0;entryX=0;entryY=0.75;entryDx=0;entryDy=0;" parent="1" source="P7p5Ek4KawbF1okIYfM0-28" target="P7p5Ek4KawbF1okIYfM0-42" edge="1">
          <mxGeometry width="50" height="50" relative="1" as="geometry">
            <mxPoint x="440" y="1140" as="sourcePoint" />
            <mxPoint x="530" y="1550" as="targetPoint" />
          </mxGeometry>
        </mxCell>
        <mxCell id="P7p5Ek4KawbF1okIYfM0-44" value="" style="endArrow=classic;html=1;exitX=1;exitY=0.25;exitDx=0;exitDy=0;entryX=0;entryY=0.5;entryDx=0;entryDy=0;" parent="1" source="P7p5Ek4KawbF1okIYfM0-2" target="P7p5Ek4KawbF1okIYfM0-28" edge="1">
          <mxGeometry width="50" height="50" relative="1" as="geometry">
            <mxPoint x="340" y="360" as="sourcePoint" />
            <mxPoint x="320" y="760" as="targetPoint" />
          </mxGeometry>
        </mxCell>
        <mxCell id="P7p5Ek4KawbF1okIYfM0-45" value="访问MySQL" style="rounded=0;whiteSpace=wrap;html=1;" parent="1" vertex="1">
          <mxGeometry x="980" y="640" width="120" height="60" as="geometry" />
        </mxCell>
        <mxCell id="P7p5Ek4KawbF1okIYfM0-46" value="整合Mybatis" style="rounded=0;whiteSpace=wrap;html=1;" parent="1" vertex="1">
          <mxGeometry x="980" y="720" width="120" height="60" as="geometry" />
        </mxCell>
        <mxCell id="P7p5Ek4KawbF1okIYfM0-47" value="整合Mybatis-Plus" style="rounded=0;whiteSpace=wrap;html=1;" parent="1" vertex="1">
          <mxGeometry x="980" y="800" width="120" height="60" as="geometry" />
        </mxCell>
        <mxCell id="P7p5Ek4KawbF1okIYfM0-48" value="" style="endArrow=classic;html=1;entryX=0;entryY=0.5;entryDx=0;entryDy=0;" parent="1" source="P7p5Ek4KawbF1okIYfM0-19" target="P7p5Ek4KawbF1okIYfM0-45" edge="1">
          <mxGeometry width="50" height="50" relative="1" as="geometry">
            <mxPoint x="500" y="625" as="sourcePoint" />
            <mxPoint x="560" y="780" as="targetPoint" />
          </mxGeometry>
        </mxCell>
        <mxCell id="P7p5Ek4KawbF1okIYfM0-49" value="" style="endArrow=classic;html=1;entryX=0;entryY=0.65;entryDx=0;entryDy=0;entryPerimeter=0;exitX=1;exitY=0.5;exitDx=0;exitDy=0;" parent="1" source="P7p5Ek4KawbF1okIYfM0-19" target="P7p5Ek4KawbF1okIYfM0-46" edge="1">
          <mxGeometry width="50" height="50" relative="1" as="geometry">
            <mxPoint x="680" y="775" as="sourcePoint" />
            <mxPoint x="740" y="770" as="targetPoint" />
          </mxGeometry>
        </mxCell>
        <mxCell id="P7p5Ek4KawbF1okIYfM0-50" value="" style="endArrow=classic;html=1;entryX=0;entryY=0.5;entryDx=0;entryDy=0;exitX=1;exitY=0.5;exitDx=0;exitDy=0;" parent="1" source="P7p5Ek4KawbF1okIYfM0-19" target="P7p5Ek4KawbF1okIYfM0-47" edge="1">
          <mxGeometry width="50" height="50" relative="1" as="geometry">
            <mxPoint x="680" y="780" as="sourcePoint" />
            <mxPoint x="750" y="859" as="targetPoint" />
          </mxGeometry>
        </mxCell>
        <mxCell id="P7p5Ek4KawbF1okIYfM0-51" value="JUnit5介绍" style="rounded=0;whiteSpace=wrap;html=1;" parent="1" vertex="1">
          <mxGeometry x="810" y="850" width="120" height="60" as="geometry" />
        </mxCell>
        <mxCell id="P7p5Ek4KawbF1okIYfM0-52" value="JUnit5断言" style="rounded=0;whiteSpace=wrap;html=1;" parent="1" vertex="1">
          <mxGeometry x="810" y="940" width="120" height="60" as="geometry" />
        </mxCell>
        <mxCell id="P7p5Ek4KawbF1okIYfM0-53" value="JUnit5常用注解" style="rounded=0;whiteSpace=wrap;html=1;" parent="1" vertex="1">
          <mxGeometry x="800" y="1020" width="120" height="60" as="geometry" />
        </mxCell>
        <mxCell id="P7p5Ek4KawbF1okIYfM0-54" value="" style="endArrow=classic;html=1;entryX=0;entryY=0.5;entryDx=0;entryDy=0;exitX=1;exitY=0.5;exitDx=0;exitDy=0;" parent="1" edge="1">
          <mxGeometry width="50" height="50" relative="1" as="geometry">
            <mxPoint x="670" y="770" as="sourcePoint" />
            <mxPoint x="980" y="830" as="targetPoint" />
          </mxGeometry>
        </mxCell>
        <mxCell id="P7p5Ek4KawbF1okIYfM0-56" value="" style="endArrow=classic;html=1;entryX=0;entryY=0.5;entryDx=0;entryDy=0;exitX=1;exitY=0.5;exitDx=0;exitDy=0;" parent="1" source="P7p5Ek4KawbF1okIYfM0-20" target="P7p5Ek4KawbF1okIYfM0-51" edge="1">
          <mxGeometry width="50" height="50" relative="1" as="geometry">
            <mxPoint x="680" y="780" as="sourcePoint" />
            <mxPoint x="990" y="840" as="targetPoint" />
          </mxGeometry>
        </mxCell>
        <mxCell id="P7p5Ek4KawbF1okIYfM0-57" value="" style="endArrow=classic;html=1;entryX=0;entryY=0.5;entryDx=0;entryDy=0;exitX=1;exitY=0.5;exitDx=0;exitDy=0;" parent="1" source="P7p5Ek4KawbF1okIYfM0-20" target="P7p5Ek4KawbF1okIYfM0-52" edge="1">
          <mxGeometry width="50" height="50" relative="1" as="geometry">
            <mxPoint x="680" y="870" as="sourcePoint" />
            <mxPoint x="820" y="890" as="targetPoint" />
          </mxGeometry>
        </mxCell>
        <mxCell id="P7p5Ek4KawbF1okIYfM0-58" value="" style="endArrow=classic;html=1;entryX=0.017;entryY=0.617;entryDx=0;entryDy=0;exitX=1;exitY=0.5;exitDx=0;exitDy=0;entryPerimeter=0;" parent="1" source="P7p5Ek4KawbF1okIYfM0-20" target="P7p5Ek4KawbF1okIYfM0-53" edge="1">
          <mxGeometry width="50" height="50" relative="1" as="geometry">
            <mxPoint x="680" y="870" as="sourcePoint" />
            <mxPoint x="820" y="980" as="targetPoint" />
          </mxGeometry>
        </mxCell>
        <mxCell id="P7p5Ek4KawbF1okIYfM0-74" style="edgeStyle=orthogonalEdgeStyle;rounded=0;orthogonalLoop=1;jettySize=auto;html=1;entryX=0;entryY=0.5;entryDx=0;entryDy=0;" parent="1" source="P7p5Ek4KawbF1okIYfM0-59" target="P7p5Ek4KawbF1okIYfM0-66" edge="1">
          <mxGeometry relative="1" as="geometry" />
        </mxCell>
        <mxCell id="P7p5Ek4KawbF1okIYfM0-80" style="edgeStyle=orthogonalEdgeStyle;rounded=0;orthogonalLoop=1;jettySize=auto;html=1;entryX=0;entryY=0.5;entryDx=0;entryDy=0;" parent="1" source="P7p5Ek4KawbF1okIYfM0-59" target="P7p5Ek4KawbF1okIYfM0-75" edge="1">
          <mxGeometry relative="1" as="geometry" />
        </mxCell>
        <mxCell id="P7p5Ek4KawbF1okIYfM0-83" style="edgeStyle=orthogonalEdgeStyle;rounded=0;orthogonalLoop=1;jettySize=auto;html=1;exitX=1;exitY=0.5;exitDx=0;exitDy=0;entryX=0;entryY=0.5;entryDx=0;entryDy=0;" parent="1" source="P7p5Ek4KawbF1okIYfM0-59" target="P7p5Ek4KawbF1okIYfM0-81" edge="1">
          <mxGeometry relative="1" as="geometry" />
        </mxCell>
        <mxCell id="P7p5Ek4KawbF1okIYfM0-92" style="edgeStyle=orthogonalEdgeStyle;rounded=0;orthogonalLoop=1;jettySize=auto;html=1;entryX=0;entryY=0.5;entryDx=0;entryDy=0;" parent="1" source="P7p5Ek4KawbF1okIYfM0-59" target="P7p5Ek4KawbF1okIYfM0-85" edge="1">
          <mxGeometry relative="1" as="geometry" />
        </mxCell>
        <mxCell id="P7p5Ek4KawbF1okIYfM0-59" value="SpringBoot2响应式编程" style="rounded=0;whiteSpace=wrap;html=1;" parent="1" vertex="1">
          <mxGeometry x="160" y="1830" width="100" height="60" as="geometry" />
        </mxCell>
        <mxCell id="P7p5Ek4KawbF1okIYfM0-60" value="响应式编程模型" style="rounded=0;whiteSpace=wrap;html=1;" parent="1" vertex="1">
          <mxGeometry x="470" y="1694" width="120" height="60" as="geometry" />
        </mxCell>
        <mxCell id="P7p5Ek4KawbF1okIYfM0-61" value="响应式编程基础" style="rounded=0;whiteSpace=wrap;html=1;" parent="1" vertex="1">
          <mxGeometry x="310" y="1740" width="120" height="60" as="geometry" />
        </mxCell>
        <mxCell id="P7p5Ek4KawbF1okIYfM0-62" value="使用Reactor开发" style="rounded=0;whiteSpace=wrap;html=1;" parent="1" vertex="1">
          <mxGeometry x="490" y="1790" width="120" height="60" as="geometry" />
        </mxCell>
        <mxCell id="P7p5Ek4KawbF1okIYfM0-63" value="" style="endArrow=classic;html=1;exitX=1;exitY=0.5;exitDx=0;exitDy=0;entryX=0;entryY=0.5;entryDx=0;entryDy=0;" parent="1" source="P7p5Ek4KawbF1okIYfM0-59" target="P7p5Ek4KawbF1okIYfM0-61" edge="1">
          <mxGeometry width="50" height="50" relative="1" as="geometry">
            <mxPoint x="300" y="1860" as="sourcePoint" />
            <mxPoint x="350" y="1810" as="targetPoint" />
          </mxGeometry>
        </mxCell>
        <mxCell id="P7p5Ek4KawbF1okIYfM0-64" value="" style="endArrow=classic;html=1;exitX=1;exitY=0.5;exitDx=0;exitDy=0;entryX=0;entryY=0.5;entryDx=0;entryDy=0;" parent="1" source="P7p5Ek4KawbF1okIYfM0-61" target="P7p5Ek4KawbF1okIYfM0-60" edge="1">
          <mxGeometry width="50" height="50" relative="1" as="geometry">
            <mxPoint x="290" y="1870" as="sourcePoint" />
            <mxPoint x="320" y="1780" as="targetPoint" />
          </mxGeometry>
        </mxCell>
        <mxCell id="P7p5Ek4KawbF1okIYfM0-65" value="" style="endArrow=classic;html=1;exitX=1;exitY=0.5;exitDx=0;exitDy=0;" parent="1" source="P7p5Ek4KawbF1okIYfM0-61" target="P7p5Ek4KawbF1okIYfM0-62" edge="1">
          <mxGeometry width="50" height="50" relative="1" as="geometry">
            <mxPoint x="440" y="1780" as="sourcePoint" />
            <mxPoint x="480" y="1734" as="targetPoint" />
          </mxGeometry>
        </mxCell>
        <mxCell id="P7p5Ek4KawbF1okIYfM0-71" style="edgeStyle=orthogonalEdgeStyle;rounded=0;orthogonalLoop=1;jettySize=auto;html=1;entryX=0;entryY=0.5;entryDx=0;entryDy=0;" parent="1" source="P7p5Ek4KawbF1okIYfM0-66" target="P7p5Ek4KawbF1okIYfM0-70" edge="1">
          <mxGeometry relative="1" as="geometry" />
        </mxCell>
        <mxCell id="P7p5Ek4KawbF1okIYfM0-72" style="edgeStyle=orthogonalEdgeStyle;rounded=0;orthogonalLoop=1;jettySize=auto;html=1;" parent="1" source="P7p5Ek4KawbF1okIYfM0-66" target="P7p5Ek4KawbF1okIYfM0-67" edge="1">
          <mxGeometry relative="1" as="geometry" />
        </mxCell>
        <mxCell id="P7p5Ek4KawbF1okIYfM0-73" style="edgeStyle=orthogonalEdgeStyle;rounded=0;orthogonalLoop=1;jettySize=auto;html=1;entryX=0;entryY=0.5;entryDx=0;entryDy=0;" parent="1" source="P7p5Ek4KawbF1okIYfM0-66" target="P7p5Ek4KawbF1okIYfM0-68" edge="1">
          <mxGeometry relative="1" as="geometry" />
        </mxCell>
        <mxCell id="P7p5Ek4KawbF1okIYfM0-66" value="WebFlux开发web应用" style="rounded=0;whiteSpace=wrap;html=1;" parent="1" vertex="1">
          <mxGeometry x="310" y="1860" width="120" height="60" as="geometry" />
        </mxCell>
        <mxCell id="P7p5Ek4KawbF1okIYfM0-67" value="WebFlux构建RESTFul应用" style="rounded=0;whiteSpace=wrap;html=1;" parent="1" vertex="1">
          <mxGeometry x="490" y="1890" width="120" height="60" as="geometry" />
        </mxCell>
        <mxCell id="P7p5Ek4KawbF1okIYfM0-68" value="RestTemplate与WebClient" style="rounded=0;whiteSpace=wrap;html=1;" parent="1" vertex="1">
          <mxGeometry x="490" y="2020" width="120" height="60" as="geometry" />
        </mxCell>
        <mxCell id="P7p5Ek4KawbF1okIYfM0-70" value="函数式构建RESTFul应用" style="rounded=0;whiteSpace=wrap;html=1;" parent="1" vertex="1">
          <mxGeometry x="490" y="1950" width="120" height="60" as="geometry" />
        </mxCell>
        <mxCell id="P7p5Ek4KawbF1okIYfM0-78" style="edgeStyle=orthogonalEdgeStyle;rounded=0;orthogonalLoop=1;jettySize=auto;html=1;exitX=1;exitY=0.5;exitDx=0;exitDy=0;" parent="1" source="P7p5Ek4KawbF1okIYfM0-75" target="P7p5Ek4KawbF1okIYfM0-76" edge="1">
          <mxGeometry relative="1" as="geometry" />
        </mxCell>
        <mxCell id="P7p5Ek4KawbF1okIYfM0-79" style="edgeStyle=orthogonalEdgeStyle;rounded=0;orthogonalLoop=1;jettySize=auto;html=1;exitX=1;exitY=0.5;exitDx=0;exitDy=0;entryX=0;entryY=0.5;entryDx=0;entryDy=0;" parent="1" source="P7p5Ek4KawbF1okIYfM0-75" target="P7p5Ek4KawbF1okIYfM0-77" edge="1">
          <mxGeometry relative="1" as="geometry" />
        </mxCell>
        <mxCell id="P7p5Ek4KawbF1okIYfM0-75" value="响应式访问持久层" style="rounded=0;whiteSpace=wrap;html=1;" parent="1" vertex="1">
          <mxGeometry x="320" y="2020" width="120" height="60" as="geometry" />
        </mxCell>
        <mxCell id="P7p5Ek4KawbF1okIYfM0-76" value="响应式访问MySQL" style="rounded=0;whiteSpace=wrap;html=1;" parent="1" vertex="1">
          <mxGeometry x="490" y="2100" width="120" height="60" as="geometry" />
        </mxCell>
        <mxCell id="P7p5Ek4KawbF1okIYfM0-77" value="响应式访问Redis" style="rounded=0;whiteSpace=wrap;html=1;" parent="1" vertex="1">
          <mxGeometry x="490" y="2170" width="120" height="60" as="geometry" />
        </mxCell>
        <mxCell id="P7p5Ek4KawbF1okIYfM0-84" style="edgeStyle=orthogonalEdgeStyle;rounded=0;orthogonalLoop=1;jettySize=auto;html=1;" parent="1" source="P7p5Ek4KawbF1okIYfM0-81" target="P7p5Ek4KawbF1okIYfM0-82" edge="1">
          <mxGeometry relative="1" as="geometry" />
        </mxCell>
        <mxCell id="P7p5Ek4KawbF1okIYfM0-81" value="响应式安全开发" style="rounded=0;whiteSpace=wrap;html=1;" parent="1" vertex="1">
          <mxGeometry x="310" y="2210" width="120" height="60" as="geometry" />
        </mxCell>
        <mxCell id="P7p5Ek4KawbF1okIYfM0-82" value="Spring Security Reactive构建安全服务" style="rounded=0;whiteSpace=wrap;html=1;" parent="1" vertex="1">
          <mxGeometry x="480" y="2250" width="120" height="60" as="geometry" />
        </mxCell>
        <mxCell id="P7p5Ek4KawbF1okIYfM0-89" style="edgeStyle=orthogonalEdgeStyle;rounded=0;orthogonalLoop=1;jettySize=auto;html=1;entryX=0;entryY=0.5;entryDx=0;entryDy=0;" parent="1" source="P7p5Ek4KawbF1okIYfM0-85" target="P7p5Ek4KawbF1okIYfM0-86" edge="1">
          <mxGeometry relative="1" as="geometry" />
        </mxCell>
        <mxCell id="P7p5Ek4KawbF1okIYfM0-90" style="edgeStyle=orthogonalEdgeStyle;rounded=0;orthogonalLoop=1;jettySize=auto;html=1;entryX=0;entryY=0.5;entryDx=0;entryDy=0;" parent="1" source="P7p5Ek4KawbF1okIYfM0-85" target="P7p5Ek4KawbF1okIYfM0-87" edge="1">
          <mxGeometry relative="1" as="geometry" />
        </mxCell>
        <mxCell id="P7p5Ek4KawbF1okIYfM0-91" style="edgeStyle=orthogonalEdgeStyle;rounded=0;orthogonalLoop=1;jettySize=auto;html=1;entryX=0;entryY=0.5;entryDx=0;entryDy=0;" parent="1" source="P7p5Ek4KawbF1okIYfM0-85" target="P7p5Ek4KawbF1okIYfM0-88" edge="1">
          <mxGeometry relative="1" as="geometry" />
        </mxCell>
        <mxCell id="P7p5Ek4KawbF1okIYfM0-85" value="响应式原理" style="rounded=0;whiteSpace=wrap;html=1;" parent="1" vertex="1">
          <mxGeometry x="294" y="2340" width="120" height="60" as="geometry" />
        </mxCell>
        <mxCell id="P7p5Ek4KawbF1okIYfM0-86" value="几种IO模型" style="rounded=0;whiteSpace=wrap;html=1;" parent="1" vertex="1">
          <mxGeometry x="470" y="2350" width="120" height="60" as="geometry" />
        </mxCell>
        <mxCell id="P7p5Ek4KawbF1okIYfM0-87" value="Netty-Reactor" style="rounded=0;whiteSpace=wrap;html=1;" parent="1" vertex="1">
          <mxGeometry x="480" y="2440" width="120" height="60" as="geometry" />
        </mxCell>
        <mxCell id="P7p5Ek4KawbF1okIYfM0-88" value="数据流处理原理" style="rounded=0;whiteSpace=wrap;html=1;" parent="1" vertex="1">
          <mxGeometry x="470" y="2530" width="120" height="60" as="geometry" />
        </mxCell>
      </root>
    </mxGraphModel>
  </diagram>
  <diagram id="V77vL6IjnfS895pclSun" name="Web开发">
    <mxGraphModel dx="1422" dy="772" grid="1" gridSize="10" guides="1" tooltips="1" connect="1" arrows="1" fold="1" page="1" pageScale="1" pageWidth="827" pageHeight="1169" math="0" shadow="0">
      <root>
        <mxCell id="47EVrBK_aLoJMJBdL7JA-0" />
        <mxCell id="47EVrBK_aLoJMJBdL7JA-1" parent="47EVrBK_aLoJMJBdL7JA-0" />
        <mxCell id="47EVrBK_aLoJMJBdL7JA-2" value="深入web原理" style="rounded=0;whiteSpace=wrap;html=1;" parent="47EVrBK_aLoJMJBdL7JA-1" vertex="1">
          <mxGeometry x="140" y="340" width="120" height="60" as="geometry" />
        </mxCell>
        <mxCell id="47EVrBK_aLoJMJBdL7JA-3" value="SpringMVC自动配置概览" style="rounded=0;whiteSpace=wrap;html=1;" parent="47EVrBK_aLoJMJBdL7JA-1" vertex="1">
          <mxGeometry x="390" y="160" width="120" height="60" as="geometry" />
        </mxCell>
        <mxCell id="47EVrBK_aLoJMJBdL7JA-4" value="简单功能分析" style="rounded=0;whiteSpace=wrap;html=1;" parent="47EVrBK_aLoJMJBdL7JA-1" vertex="1">
          <mxGeometry x="390" y="280" width="120" height="60" as="geometry" />
        </mxCell>
        <mxCell id="47EVrBK_aLoJMJBdL7JA-5" value="请求参数处理" style="rounded=0;whiteSpace=wrap;html=1;" parent="47EVrBK_aLoJMJBdL7JA-1" vertex="1">
          <mxGeometry x="390" y="390" width="120" height="60" as="geometry" />
        </mxCell>
        <mxCell id="47EVrBK_aLoJMJBdL7JA-6" value="请求参数处理" style="rounded=0;whiteSpace=wrap;html=1;" parent="47EVrBK_aLoJMJBdL7JA-1" vertex="1">
          <mxGeometry x="390" y="390" width="120" height="60" as="geometry" />
        </mxCell>
        <mxCell id="47EVrBK_aLoJMJBdL7JA-7" value="数据响应与内容协商" style="rounded=0;whiteSpace=wrap;html=1;" parent="47EVrBK_aLoJMJBdL7JA-1" vertex="1">
          <mxGeometry x="390" y="490" width="120" height="60" as="geometry" />
        </mxCell>
        <mxCell id="47EVrBK_aLoJMJBdL7JA-8" value="视图解析与模板引擎" style="rounded=0;whiteSpace=wrap;html=1;" parent="47EVrBK_aLoJMJBdL7JA-1" vertex="1">
          <mxGeometry x="390" y="600" width="120" height="60" as="geometry" />
        </mxCell>
        <mxCell id="47EVrBK_aLoJMJBdL7JA-9" value="拦截器" style="rounded=0;whiteSpace=wrap;html=1;" parent="47EVrBK_aLoJMJBdL7JA-1" vertex="1">
          <mxGeometry x="390" y="670" width="120" height="60" as="geometry" />
        </mxCell>
        <mxCell id="47EVrBK_aLoJMJBdL7JA-10" value="跨域" style="rounded=0;whiteSpace=wrap;html=1;" parent="47EVrBK_aLoJMJBdL7JA-1" vertex="1">
          <mxGeometry x="390" y="750" width="120" height="60" as="geometry" />
        </mxCell>
        <mxCell id="47EVrBK_aLoJMJBdL7JA-11" value="异常处理" style="rounded=0;whiteSpace=wrap;html=1;" parent="47EVrBK_aLoJMJBdL7JA-1" vertex="1">
          <mxGeometry x="390" y="840" width="120" height="60" as="geometry" />
        </mxCell>
        <mxCell id="47EVrBK_aLoJMJBdL7JA-12" value="原生Servlet组件" style="rounded=0;whiteSpace=wrap;html=1;" parent="47EVrBK_aLoJMJBdL7JA-1" vertex="1">
          <mxGeometry x="400" y="930" width="120" height="60" as="geometry" />
        </mxCell>
        <mxCell id="47EVrBK_aLoJMJBdL7JA-13" value="定制化原理" style="rounded=0;whiteSpace=wrap;html=1;" parent="47EVrBK_aLoJMJBdL7JA-1" vertex="1">
          <mxGeometry x="390" y="1020" width="120" height="60" as="geometry" />
        </mxCell>
      </root>
    </mxGraphModel>
  </diagram>
  <diagram id="ctHrj59FrTKQDcdmW7vz" name="拦截器">
    <mxGraphModel dx="1422" dy="772" grid="1" gridSize="10" guides="1" tooltips="1" connect="1" arrows="1" fold="1" page="1" pageScale="1" pageWidth="827" pageHeight="1169" math="0" shadow="0">
      <root>
        <mxCell id="oDdpQjfAaE7eqQ7wPlNv-0" />
        <mxCell id="oDdpQjfAaE7eqQ7wPlNv-1" parent="oDdpQjfAaE7eqQ7wPlNv-0" />
        <mxCell id="oDdpQjfAaE7eqQ7wPlNv-2" value="页面渲染" style="rounded=0;whiteSpace=wrap;html=1;" vertex="1" parent="oDdpQjfAaE7eqQ7wPlNv-1">
          <mxGeometry x="10" y="280" width="120" height="60" as="geometry" />
        </mxCell>
        <mxCell id="oDdpQjfAaE7eqQ7wPlNv-3" value="" style="rounded=0;whiteSpace=wrap;html=1;" vertex="1" parent="oDdpQjfAaE7eqQ7wPlNv-1">
          <mxGeometry x="150" y="110" width="90" height="410" as="geometry" />
        </mxCell>
        <mxCell id="oDdpQjfAaE7eqQ7wPlNv-4" value="preHandle" style="text;html=1;strokeColor=none;fillColor=none;align=center;verticalAlign=middle;whiteSpace=wrap;rounded=0;" vertex="1" parent="oDdpQjfAaE7eqQ7wPlNv-1">
          <mxGeometry x="180" y="150" width="40" height="20" as="geometry" />
        </mxCell>
        <mxCell id="oDdpQjfAaE7eqQ7wPlNv-5" value="拦截器1" style="text;html=1;strokeColor=none;fillColor=none;align=center;verticalAlign=middle;whiteSpace=wrap;rounded=0;" vertex="1" parent="oDdpQjfAaE7eqQ7wPlNv-1">
          <mxGeometry x="170" y="260" width="60" height="20" as="geometry" />
        </mxCell>
        <mxCell id="oDdpQjfAaE7eqQ7wPlNv-6" value="postHandle" style="text;html=1;strokeColor=none;fillColor=none;align=center;verticalAlign=middle;whiteSpace=wrap;rounded=0;" vertex="1" parent="oDdpQjfAaE7eqQ7wPlNv-1">
          <mxGeometry x="160" y="410" width="60" height="20" as="geometry" />
        </mxCell>
        <mxCell id="oDdpQjfAaE7eqQ7wPlNv-9" value="" style="rounded=0;whiteSpace=wrap;html=1;" vertex="1" parent="oDdpQjfAaE7eqQ7wPlNv-1">
          <mxGeometry x="300" y="100" width="90" height="410" as="geometry" />
        </mxCell>
        <mxCell id="oDdpQjfAaE7eqQ7wPlNv-10" value="preHandle" style="text;html=1;strokeColor=none;fillColor=none;align=center;verticalAlign=middle;whiteSpace=wrap;rounded=0;" vertex="1" parent="oDdpQjfAaE7eqQ7wPlNv-1">
          <mxGeometry x="330" y="140" width="40" height="20" as="geometry" />
        </mxCell>
        <mxCell id="oDdpQjfAaE7eqQ7wPlNv-11" value="拦截器2" style="text;html=1;strokeColor=none;fillColor=none;align=center;verticalAlign=middle;whiteSpace=wrap;rounded=0;" vertex="1" parent="oDdpQjfAaE7eqQ7wPlNv-1">
          <mxGeometry x="320" y="250" width="60" height="20" as="geometry" />
        </mxCell>
        <mxCell id="oDdpQjfAaE7eqQ7wPlNv-12" value="postHandle" style="text;html=1;strokeColor=none;fillColor=none;align=center;verticalAlign=middle;whiteSpace=wrap;rounded=0;" vertex="1" parent="oDdpQjfAaE7eqQ7wPlNv-1">
          <mxGeometry x="310" y="400" width="60" height="20" as="geometry" />
        </mxCell>
        <mxCell id="oDdpQjfAaE7eqQ7wPlNv-13" value="" style="rounded=0;whiteSpace=wrap;html=1;" vertex="1" parent="oDdpQjfAaE7eqQ7wPlNv-1">
          <mxGeometry x="440" y="100" width="90" height="410" as="geometry" />
        </mxCell>
        <mxCell id="oDdpQjfAaE7eqQ7wPlNv-14" value="preHandle" style="text;html=1;strokeColor=none;fillColor=none;align=center;verticalAlign=middle;whiteSpace=wrap;rounded=0;" vertex="1" parent="oDdpQjfAaE7eqQ7wPlNv-1">
          <mxGeometry x="470" y="140" width="40" height="20" as="geometry" />
        </mxCell>
        <mxCell id="oDdpQjfAaE7eqQ7wPlNv-15" value="拦截器3" style="text;html=1;strokeColor=none;fillColor=none;align=center;verticalAlign=middle;whiteSpace=wrap;rounded=0;" vertex="1" parent="oDdpQjfAaE7eqQ7wPlNv-1">
          <mxGeometry x="460" y="250" width="60" height="20" as="geometry" />
        </mxCell>
        <mxCell id="oDdpQjfAaE7eqQ7wPlNv-16" value="postHandle" style="text;html=1;strokeColor=none;fillColor=none;align=center;verticalAlign=middle;whiteSpace=wrap;rounded=0;" vertex="1" parent="oDdpQjfAaE7eqQ7wPlNv-1">
          <mxGeometry x="450" y="400" width="60" height="20" as="geometry" />
        </mxCell>
        <mxCell id="oDdpQjfAaE7eqQ7wPlNv-17" value="" style="endArrow=classic;html=1;exitX=1;exitY=0.112;exitDx=0;exitDy=0;exitPerimeter=0;entryX=0.022;entryY=0.134;entryDx=0;entryDy=0;entryPerimeter=0;" edge="1" parent="oDdpQjfAaE7eqQ7wPlNv-1" source="oDdpQjfAaE7eqQ7wPlNv-3" target="oDdpQjfAaE7eqQ7wPlNv-9">
          <mxGeometry width="50" height="50" relative="1" as="geometry">
            <mxPoint x="390" y="410" as="sourcePoint" />
            <mxPoint x="440" y="360" as="targetPoint" />
          </mxGeometry>
        </mxCell>
        <mxCell id="oDdpQjfAaE7eqQ7wPlNv-18" value="" style="endArrow=classic;html=1;exitX=1.011;exitY=0.115;exitDx=0;exitDy=0;exitPerimeter=0;entryX=0.011;entryY=0.12;entryDx=0;entryDy=0;entryPerimeter=0;" edge="1" parent="oDdpQjfAaE7eqQ7wPlNv-1" source="oDdpQjfAaE7eqQ7wPlNv-9" target="oDdpQjfAaE7eqQ7wPlNv-13">
          <mxGeometry width="50" height="50" relative="1" as="geometry">
            <mxPoint x="250" y="165.91999999999996" as="sourcePoint" />
            <mxPoint x="311.98" y="164.94000000000005" as="targetPoint" />
          </mxGeometry>
        </mxCell>
        <mxCell id="oDdpQjfAaE7eqQ7wPlNv-19" value="目标方法" style="rounded=0;whiteSpace=wrap;html=1;" vertex="1" parent="oDdpQjfAaE7eqQ7wPlNv-1">
          <mxGeometry x="600" y="270" width="120" height="60" as="geometry" />
        </mxCell>
        <mxCell id="oDdpQjfAaE7eqQ7wPlNv-20" value="" style="endArrow=classic;html=1;exitX=1.033;exitY=0.141;exitDx=0;exitDy=0;exitPerimeter=0;entryX=0;entryY=0.5;entryDx=0;entryDy=0;" edge="1" parent="oDdpQjfAaE7eqQ7wPlNv-1" source="oDdpQjfAaE7eqQ7wPlNv-13" target="oDdpQjfAaE7eqQ7wPlNv-19">
          <mxGeometry width="50" height="50" relative="1" as="geometry">
            <mxPoint x="390" y="410" as="sourcePoint" />
            <mxPoint x="440" y="360" as="targetPoint" />
          </mxGeometry>
        </mxCell>
        <mxCell id="oDdpQjfAaE7eqQ7wPlNv-21" value="" style="endArrow=classic;html=1;exitX=0;exitY=0.5;exitDx=0;exitDy=0;entryX=0.989;entryY=0.768;entryDx=0;entryDy=0;entryPerimeter=0;" edge="1" parent="oDdpQjfAaE7eqQ7wPlNv-1" source="oDdpQjfAaE7eqQ7wPlNv-19" target="oDdpQjfAaE7eqQ7wPlNv-13">
          <mxGeometry width="50" height="50" relative="1" as="geometry">
            <mxPoint x="600" y="369.99999999999994" as="sourcePoint" />
            <mxPoint x="667.03" y="512.19" as="targetPoint" />
          </mxGeometry>
        </mxCell>
        <mxCell id="oDdpQjfAaE7eqQ7wPlNv-22" value="" style="endArrow=classic;html=1;exitX=0.011;exitY=0.768;exitDx=0;exitDy=0;entryX=0.989;entryY=0.771;entryDx=0;entryDy=0;entryPerimeter=0;exitPerimeter=0;" edge="1" parent="oDdpQjfAaE7eqQ7wPlNv-1" source="oDdpQjfAaE7eqQ7wPlNv-13" target="oDdpQjfAaE7eqQ7wPlNv-9">
          <mxGeometry width="50" height="50" relative="1" as="geometry">
            <mxPoint x="610" y="310" as="sourcePoint" />
            <mxPoint x="539.01" y="424.8800000000001" as="targetPoint" />
          </mxGeometry>
        </mxCell>
        <mxCell id="oDdpQjfAaE7eqQ7wPlNv-24" value="" style="endArrow=classic;html=1;exitX=-0.011;exitY=0.78;exitDx=0;exitDy=0;entryX=1;entryY=0.75;entryDx=0;entryDy=0;exitPerimeter=0;" edge="1" parent="oDdpQjfAaE7eqQ7wPlNv-1" source="oDdpQjfAaE7eqQ7wPlNv-9" target="oDdpQjfAaE7eqQ7wPlNv-3">
          <mxGeometry width="50" height="50" relative="1" as="geometry">
            <mxPoint x="450.99" y="424.8800000000001" as="sourcePoint" />
            <mxPoint x="399.01" y="426.1100000000001" as="targetPoint" />
          </mxGeometry>
        </mxCell>
        <mxCell id="oDdpQjfAaE7eqQ7wPlNv-25" value="" style="endArrow=classic;html=1;exitX=0;exitY=0.75;exitDx=0;exitDy=0;entryX=1.017;entryY=0.617;entryDx=0;entryDy=0;entryPerimeter=0;" edge="1" parent="oDdpQjfAaE7eqQ7wPlNv-1" source="oDdpQjfAaE7eqQ7wPlNv-3" target="oDdpQjfAaE7eqQ7wPlNv-2">
          <mxGeometry width="50" height="50" relative="1" as="geometry">
            <mxPoint x="309.01" y="429.79999999999995" as="sourcePoint" />
            <mxPoint x="250" y="427.5" as="targetPoint" />
          </mxGeometry>
        </mxCell>
        <mxCell id="oDdpQjfAaE7eqQ7wPlNv-26" value="" style="endArrow=classic;html=1;exitX=0.5;exitY=1;exitDx=0;exitDy=0;" edge="1" parent="oDdpQjfAaE7eqQ7wPlNv-1" source="oDdpQjfAaE7eqQ7wPlNv-2">
          <mxGeometry width="50" height="50" relative="1" as="geometry">
            <mxPoint x="390" y="410" as="sourcePoint" />
            <mxPoint x="590" y="600" as="targetPoint" />
            <Array as="points">
              <mxPoint x="80" y="610" />
            </Array>
          </mxGeometry>
        </mxCell>
        <mxCell id="oDdpQjfAaE7eqQ7wPlNv-27" value="afterCompletion" style="text;html=1;strokeColor=none;fillColor=none;align=center;verticalAlign=middle;whiteSpace=wrap;rounded=0;" vertex="1" parent="oDdpQjfAaE7eqQ7wPlNv-1">
          <mxGeometry x="165" y="530" width="60" height="20" as="geometry" />
        </mxCell>
        <mxCell id="oDdpQjfAaE7eqQ7wPlNv-28" value="afterCompletion" style="text;html=1;strokeColor=none;fillColor=none;align=center;verticalAlign=middle;whiteSpace=wrap;rounded=0;" vertex="1" parent="oDdpQjfAaE7eqQ7wPlNv-1">
          <mxGeometry x="300" y="530" width="60" height="20" as="geometry" />
        </mxCell>
        <mxCell id="oDdpQjfAaE7eqQ7wPlNv-29" value="afterCompletion" style="text;html=1;strokeColor=none;fillColor=none;align=center;verticalAlign=middle;whiteSpace=wrap;rounded=0;" vertex="1" parent="oDdpQjfAaE7eqQ7wPlNv-1">
          <mxGeometry x="455" y="530" width="60" height="20" as="geometry" />
        </mxCell>
        <mxCell id="oDdpQjfAaE7eqQ7wPlNv-30" value="" style="endArrow=classic;html=1;" edge="1" parent="oDdpQjfAaE7eqQ7wPlNv-1">
          <mxGeometry width="50" height="50" relative="1" as="geometry">
            <mxPoint x="590" y="590" as="sourcePoint" />
            <mxPoint x="530" y="540" as="targetPoint" />
          </mxGeometry>
        </mxCell>
        <mxCell id="oDdpQjfAaE7eqQ7wPlNv-32" value="" style="endArrow=classic;html=1;" edge="1" parent="oDdpQjfAaE7eqQ7wPlNv-1">
          <mxGeometry width="50" height="50" relative="1" as="geometry">
            <mxPoint x="430" y="540" as="sourcePoint" />
            <mxPoint x="384" y="540" as="targetPoint" />
          </mxGeometry>
        </mxCell>
        <mxCell id="oDdpQjfAaE7eqQ7wPlNv-33" value="" style="endArrow=classic;html=1;" edge="1" parent="oDdpQjfAaE7eqQ7wPlNv-1">
          <mxGeometry width="50" height="50" relative="1" as="geometry">
            <mxPoint x="286" y="539.5" as="sourcePoint" />
            <mxPoint x="240" y="539.5" as="targetPoint" />
          </mxGeometry>
        </mxCell>
      </root>
    </mxGraphModel>
  </diagram>
</mxfile>
